<?xml version="1.0" encoding="utf-8"?>
<!-- Generator: Fusion 360, Shaper Origin Export Add-In, Version 1.5.0  -->
<svg enable-background="new 0 0 30 20.635" height="20.635cm" shaper:fusionaddin="version:1.5.0" version="1.1" viewBox="0 0 30 20.635" width="30cm" x="0cm" xml:space="preserve" xmlns="http://www.w3.org/2000/svg" xmlns:shaper="http://www.shapertools.com/namespaces/shaper" xmlns:xlink="http://www.w3.org/1999/xlink" y="0cm"><path d="M12,20 L10,20 10,20.3175 8,20.3175 8,20 6,20 6,20.3175 4,20.3175 4,20 2,20 2,20.3175 0,20.3175 0,20 -2,20 -2,20.3175 -4,20.3175 -4,20 -6,20 -6,20.3175 -8,20.3175 -8,20 -10,20 -10,20.3175 -12,20.3175 -12,20 -14,20 -14,20.3175 -16,20.3175 -16,20 -18,20 -18,18 -17.6825,18 -17.6825,16 -18,16 -18,14 -17.6825,14 -17.6825,12 -18,12 -18,10 -17.6825,10 -17.6825,8 -18,8 -18,6 -17.6825,6 -17.6825,4 -18,4 -18,2 -17.6825,2 -17.6825,-0 -16,0 -16,-0.3175 -14,-0.3175 -14,-0 -12,0 -12,-0.3175 -10,-0.3175 -10,-0 -8,0 -8,-0.3175 -6,-0.3175 -6,0 -4,-0 -4,-0.3175 -2,-0.3175 -2,0 0,-0 -0,-0.3175 2,-0.3175 2,-0 4,0 4,-0.3175 6,-0.3175 6,-0 8,0 8,-0.3175 10,-0.3175 10,0 11.6825,-0 11.6825,2 12,2 12,4 11.6825,4 11.6825,6 12,6 12,8 11.6825,8 11.6825,10 12,10 12,12 11.6825,12 11.6825,14 12,14 12,16 11.6825,16 11.6825,18 12,18 12,20z" fill="rgb(0,0,0)" shaper:cutDepth="0.003175" shaper:pathType="exterior" transform="matrix(1,0,0,-1,18,20.3175)" vector-effect="non-scaling-stroke" /></svg>