<?xml version="1.0" encoding="utf-8"?>
<!-- Generator: Fusion 360, Shaper Origin Export Add-In, Version 1.5.0  -->
<svg enable-background="new 0 0 20.635 20" height="20cm" shaper:fusionaddin="version:1.5.0" version="1.1" viewBox="0 0 20.635 20" width="20.635cm" x="0cm" xml:space="preserve" xmlns="http://www.w3.org/2000/svg" xmlns:shaper="http://www.shapertools.com/namespaces/shaper" xmlns:xlink="http://www.w3.org/1999/xlink" y="0cm"><path d="M20.635,18 L20.3175,18 20.3175,20 18.3175,20 18.3175,19.6825 16.3175,19.6825 16.3175,20 14.3175,20 14.3175,19.6825 12.3175,19.6825 12.3175,20 10.3175,20 10.3175,19.6825 8.3175,19.6825 8.3175,20 6.3175,20 6.3175,19.6825 4.3175,19.6825 4.3175,20 2.3175,20 2.3175,19.6825 0.3175,19.6825 0.3175,18 0,18 0,16 0.3175,16 0.3175,14 0,14 0,12 0.3175,12 0.3175,10 0,10 0,8 0.3175,8 0.3175,6 0,6 0,4 0.3175,4 0.3175,2 -0,2 0,0 20.635,0 20.635,2 20.3175,2 20.3175,4 20.635,4 20.635,6 20.3175,6 20.3175,8 20.635,8 20.635,10 20.3175,10 20.3175,12 20.635,12 20.635,14 20.3175,14 20.3175,16 20.635,16 20.635,18z" fill="rgb(0,0,0)" shaper:cutDepth="0.003175" shaper:pathType="exterior" transform="matrix(1,0,0,-1,0,20)" vector-effect="non-scaling-stroke" /></svg>