<?xml version="1.0" encoding="utf-8"?>
<!-- Generator: Fusion 360, Shaper Origin Export Add-In, Version 1.5.0  -->
<svg enable-background="new 0 0 20.635 20" height="20cm" shaper:fusionaddin="version:1.5.0" version="1.1" viewBox="0 0 20.635 20" width="20.635cm" x="0cm" xml:space="preserve" xmlns="http://www.w3.org/2000/svg" xmlns:shaper="http://www.shapertools.com/namespaces/shaper" xmlns:xlink="http://www.w3.org/1999/xlink" y="0cm"><path d="M-0,12 L0.3175,12 0.3175,10 -0,10 -0,8 0.3175,8 0.3175,6 -0,6 -0,4 0.3175,4 0.3175,2 -0,2 -0,-0 20.635,0 20.635,2 20.3175,2 20.3175,4 20.635,4 20.635,6 20.3175,6 20.3175,8 20.635,8 20.635,10 20.3175,10 20.3175,12 20.635,12 20.635,14 20.3175,14 20.3175,16 20.635,16 20.635,18 20.3175,18 20.3175,19.6825 18.3175,19.6825 18.3175,20 16.3175,20 16.3175,19.6825 14.3175,19.6825 14.3175,20 12.3175,20 12.3175,19.6825 10.3175,19.6825 10.3175,20 8.3175,20 8.3175,19.6825 6.3175,19.6825 6.3175,20 4.3175,20 4.3175,19.6825 2.3175,19.6825 2.3175,20 0.3175,20 0.3175,18 -0,18 -0,16 0.3175,16 0.3175,14 -0,14 -0,12z" fill="rgb(0,0,0)" shaper:cutDepth="0.003175" shaper:pathType="exterior" transform="matrix(1,0,0,-1,0,20)" vector-effect="non-scaling-stroke" /><path d="M16.4153437,2.6509141 L16.4153437,5.1709141 11.8953437,5.1709141 11.8953437,2.6509141 16.4153437,2.6509141z" fill="rgb(255,255,255)" shaper:cutDepth="0.003175" shaper:pathType="interior" stroke="rgb(0,0,0)" transform="matrix(1,0,0,-1,0,20)" vector-effect="non-scaling-stroke" /><path d="M3.9811037,12.7791447 L4.9811037,12.7791447 4.9811037,13.0966447 3.9811037,13.0966447 3.9811037,12.7791447z" fill="rgb(255,255,255)" shaper:cutDepth="0.003175" shaper:pathType="interior" stroke="rgb(0,0,0)" transform="matrix(1,0,0,-1,0,20)" vector-effect="non-scaling-stroke" /><path d="M1.9811037,10.7791447 L1.6636037,10.7791447 1.6636037,9.7791447 1.9811037,9.7791447 1.9811037,10.7791447z" fill="rgb(255,255,255)" shaper:cutDepth="0.003175" shaper:pathType="interior" stroke="rgb(0,0,0)" transform="matrix(1,0,0,-1,0,20)" vector-effect="non-scaling-stroke" /><path d="M5.9811037,12.7791447 L6.9811037,12.7791447 6.9811037,13.0966447 5.9811037,13.0966447 5.9811037,12.7791447z" fill="rgb(255,255,255)" shaper:cutDepth="0.003175" shaper:pathType="interior" stroke="rgb(0,0,0)" transform="matrix(1,0,0,-1,0,20)" vector-effect="non-scaling-stroke" /><path d="M2.9811037,13.0966447 L1.9811037,13.0966447 1.9811037,12.7791447 1.6636037,12.7791447 1.6636037,11.7791447 1.9811037,11.7791447 1.9811037,12.7791447 2.9811037,12.7791447 2.9811037,13.0966447z" fill="rgb(255,255,255)" shaper:cutDepth="0.003175" shaper:pathType="interior" stroke="rgb(0,0,0)" transform="matrix(1,0,0,-1,0,20)" vector-effect="non-scaling-stroke" /><path d="M1.9811037,8.7791447 L1.6636037,8.7791447 1.6636037,7.7791447 1.9811037,7.7791447 1.9811037,8.7791447z" fill="rgb(255,255,255)" shaper:cutDepth="0.003175" shaper:pathType="interior" stroke="rgb(0,0,0)" transform="matrix(1,0,0,-1,0,20)" vector-effect="non-scaling-stroke" /><path d="M7.9811037,13.0966447 L7.9811037,12.7791447 8.9811037,12.7791447 8.9811037,13.0966447 7.9811037,13.0966447z" fill="rgb(255,255,255)" shaper:cutDepth="0.003175" shaper:pathType="interior" stroke="rgb(0,0,0)" transform="matrix(1,0,0,-1,0,20)" vector-effect="non-scaling-stroke" /><path d="M18.4276306,10.7791447 L18.4276306,11.7791447 18.1101306,11.7791447 18.1101306,10.7791447 18.4276306,10.7791447z" fill="rgb(255,255,255)" shaper:cutDepth="0.003175" shaper:pathType="interior" stroke="rgb(0,0,0)" transform="matrix(1,0,0,-1,0,20)" vector-effect="non-scaling-stroke" /><path d="M12.4751306,14.7316447 L12.4751306,14.4141447 13.4751306,14.4141447 13.4751306,14.7316447 12.4751306,14.7316447z" fill="rgb(255,255,255)" shaper:cutDepth="0.003175" shaper:pathType="interior" stroke="rgb(0,0,0)" transform="matrix(1,0,0,-1,0,20)" vector-effect="non-scaling-stroke" /><path d="M9.8401306,9.7791447 L9.5226306,9.7791447 9.5226306,8.7791447 9.8401306,8.7791447 9.8401306,9.7791447z" fill="rgb(255,255,255)" shaper:cutDepth="0.003175" shaper:pathType="interior" stroke="rgb(0,0,0)" transform="matrix(1,0,0,-1,0,20)" vector-effect="non-scaling-stroke" /><path d="M9.8401306,11.7791447 L9.5226306,11.7791447 9.5226306,10.7791447 9.8401306,10.7791447 9.8401306,11.7791447z" fill="rgb(255,255,255)" shaper:cutDepth="0.003175" shaper:pathType="interior" stroke="rgb(0,0,0)" transform="matrix(1,0,0,-1,0,20)" vector-effect="non-scaling-stroke" /><path d="M14.4751306,14.7316447 L14.4751306,14.4141447 15.4751306,14.4141447 15.4751306,14.7316447 14.4751306,14.7316447z" fill="rgb(255,255,255)" shaper:cutDepth="0.003175" shaper:pathType="interior" stroke="rgb(0,0,0)" transform="matrix(1,0,0,-1,0,20)" vector-effect="non-scaling-stroke" /><path d="M18.4276306,8.7791447 L18.4276306,9.7791447 18.1101306,9.7791447 18.1101306,8.7791447 18.4276306,8.7791447z" fill="rgb(255,255,255)" shaper:cutDepth="0.003175" shaper:pathType="interior" stroke="rgb(0,0,0)" transform="matrix(1,0,0,-1,0,20)" vector-effect="non-scaling-stroke" /><path d="M18.4276306,12.7791447 L18.4276306,13.7791447 18.1101306,13.7791447 18.1101306,12.7791447 18.4276306,12.7791447z" fill="rgb(255,255,255)" shaper:cutDepth="0.003175" shaper:pathType="interior" stroke="rgb(0,0,0)" transform="matrix(1,0,0,-1,0,20)" vector-effect="non-scaling-stroke" /><path d="M10.4751306,14.4141447 L11.4751306,14.4141447 11.4751306,14.7316447 10.4751306,14.7316447 10.4751306,14.4141447z" fill="rgb(255,255,255)" shaper:cutDepth="0.003175" shaper:pathType="interior" stroke="rgb(0,0,0)" transform="matrix(1,0,0,-1,0,20)" vector-effect="non-scaling-stroke" /><path d="M9.5226306,7.7791447 L9.5226306,6.7791447 9.8401306,6.7791447 9.8401306,7.7791447 9.5226306,7.7791447z" fill="rgb(255,255,255)" shaper:cutDepth="0.003175" shaper:pathType="interior" stroke="rgb(0,0,0)" transform="matrix(1,0,0,-1,0,20)" vector-effect="non-scaling-stroke" /><path d="M9.8401306,13.7791447 L9.5226306,13.7791447 9.5226306,12.7791447 9.8401306,12.7791447 9.8401306,13.7791447z" fill="rgb(255,255,255)" shaper:cutDepth="0.003175" shaper:pathType="interior" stroke="rgb(0,0,0)" transform="matrix(1,0,0,-1,0,20)" vector-effect="non-scaling-stroke" /><path d="M16.4751306,14.4141447 L17.4751306,14.4141447 17.4751306,14.7316447 16.4751306,14.7316447 16.4751306,14.4141447z" fill="rgb(255,255,255)" shaper:cutDepth="0.003175" shaper:pathType="interior" stroke="rgb(0,0,0)" transform="matrix(1,0,0,-1,0,20)" vector-effect="non-scaling-stroke" /><path d="M18.1101306,6.7791447 L18.4276306,6.7791447 18.4276306,7.7791447 18.1101306,7.7791447 18.1101306,6.7791447z" fill="rgb(255,255,255)" shaper:cutDepth="0.003175" shaper:pathType="interior" stroke="rgb(0,0,0)" transform="matrix(1,0,0,-1,0,20)" vector-effect="non-scaling-stroke" /><path d="M17.4751306,6.7791447 L17.4751306,13.7791447 10.4751306,13.7791447 10.4751306,6.7791447 17.4751306,6.7791447z" fill="rgb(255,255,255)" shaper:cutDepth="0.003175" shaper:pathType="interior" stroke="rgb(0,0,0)" transform="matrix(1,0,0,-1,0,20)" vector-effect="non-scaling-stroke" /><path d="M6.3762361,5.2246856 L6.3762361,10.9366304 A0.6,0.6 0 0,1 5.1762361,10.9366304 L5.1762361,5.2246856 A0.6,0.6 180 0,1 6.3762361,5.2246856z" fill="rgb(255,255,255)" shaper:cutDepth="0.003175" shaper:pathType="interior" stroke="rgb(0,0,0)" transform="matrix(1,0,0,-1,0,20)" vector-effect="non-scaling-stroke" /></svg>