<?xml version="1.0" encoding="utf-8"?>
<!-- Generator: Fusion 360, Shaper Origin Export Add-In, Version 1.5.0  -->
<svg enable-background="new 0 0 30 20" height="20cm" shaper:fusionaddin="version:1.5.0" version="1.1" viewBox="0 0 30 20" width="30cm" x="0cm" xml:space="preserve" xmlns="http://www.w3.org/2000/svg" xmlns:shaper="http://www.shapertools.com/namespaces/shaper" xmlns:xlink="http://www.w3.org/1999/xlink" y="0cm"><path d="M29.365,-0 L0,0 -0,2 -0.3175,2 -0.3175,4 -0,4 -0,6 -0.3175,6 -0.3175,8 -0,8 0,10 -0.3175,10 -0.3175,12 0,12 0,14 -0.3175,14 -0.3175,16 0,16 0,18 -0.3175,18 -0.3175,20 1.6825,20 1.6825,19.6825 3.6825,19.6825 3.6825,20 5.6825,20 5.6825,19.6825 7.6825,19.6825 7.6825,20 9.6825,20 9.6825,19.6825 11.6825,19.6825 11.6825,20 13.6825,20 13.6825,19.6825 15.6825,19.6825 15.6825,20 17.6825,20 17.6825,19.6825 19.6825,19.6825 19.6825,20 21.6825,20 21.6825,19.6825 23.6825,19.6825 23.6825,20 25.6825,20 25.6825,19.6825 27.6825,19.6825 27.6825,20 29.6825,20 29.6825,18 29.365,18 29.365,16 29.6825,16 29.6825,14 29.365,14 29.365,12 29.6825,12 29.6825,10 29.365,10 29.365,8 29.6825,8 29.6825,6 29.365,6 29.365,4 29.6825,4 29.6825,2 29.365,2 29.365,-0z" fill="rgb(0,0,0)" shaper:cutDepth="0.003175" shaper:pathType="exterior" transform="matrix(1,0,0,-1,0.3175,20)" vector-effect="non-scaling-stroke" /></svg>